Coordinates
version=1
nRows=9
nColumns=63
inDegrees=yes

Units are S.I. units (second, meters, Newtons, ...)
If the header above contains a line with 'inDegrees', this indicates whether rotational values are in degrees (yes) or radians (no).

endheader
time	pelvis_tilt	pelvis_list	pelvis_rotation	pelvis_tx	pelvis_ty	pelvis_tz	hip_flexion_r	hip_adduction_r	hip_rotation_r	knee_angle_r	knee_angle_r_beta	ankle_angle_r	subtalar_angle_r	mtp_angle_r	hip_flexion_l	hip_adduction_l	hip_rotation_l	knee_angle_l	knee_angle_l_beta	ankle_angle_l	subtalar_angle_l	mtp_angle_l	L5_S1_Flex_Ext	L5_S1_Lat_Bending	L5_S1_axial_rotation	L4_L5_Flex_Ext	L4_L5_Lat_Bending	L4_L5_axial_rotation	L3_L4_Flex_Ext	L3_L4_Lat_Bending	L3_L4_axial_rotation	L2_L3_Flex_Ext	L2_L3_Lat_Bending	L2_L3_axial_rotation	L1_L2_Flex_Ext	L1_L2_Lat_Bending	L1_L2_axial_rotation	L1_T12_Flex_Ext	L1_T12_Lat_Bending	L1_T12_axial_rotation	Abs_r3	Abs_r2	Abs_r1	Abs_t1	Abs_t2	neck_flexion	neck_bending	neck_rotation	arm_flex_r	arm_add_r	arm_rot_r	elbow_flex_r	pro_sup_r	wrist_flex_r	wrist_dev_r	arm_flex_l	arm_add_l	arm_rot_l	elbow_flex_l	pro_sup_l	wrist_flex_l	wrist_dev_l
      4.96666667	      3.40714710	      0.07515351	    177.91046197	      2.44209978	      0.89435233	      0.56940051	     11.87180584	      1.12074190	     -9.21112532	     22.55545554	      0.39366696	     22.29067435	     -2.51787594	      0.00000000	      5.68210722	      0.16379099	      0.72878205	     10.89874540	      0.19021899	     14.47674299	    -17.96660644	      0.00000000	      0.00203789	     -0.13190618	     -0.10663063	      0.00378456	     -0.17543522	     -0.11329504	      0.00334804	     -0.32071669	     -0.11329504	      0.00232910	     -0.32071669	     -0.09330180	      0.00189238	     -0.26898308	     -0.08663739	      0.00116445	     -0.20432267	     -0.07997297	      0.01455642	     -1.49214910	     -0.59304758	      0.00000000	      0.00000000	     -0.00000000	      0.00000000	      0.00000000	    -12.15474617	      3.31349110	    -25.93356722	     27.10261081	     44.27844584	      0.00000000	      5.00000014	     -9.69210939	    -11.50059878	     37.54702363	     19.46978825	     59.54341155	      0.00000000	      5.00000014
      5.00000000	      3.52532357	      0.25256363	    177.96563735	      2.44184513	      0.89421345	      0.57013608	     11.92164133	      1.37943602	     -8.56141450	     22.42031199	      0.39130826	     22.02518689	     -3.45436196	      0.00000000	      5.87058534	     -0.00426588	      0.76671358	     11.10822393	      0.19387508	     14.76492603	    -17.93620236	      0.00000000	      0.00247569	     -0.12389235	     -0.18041820	      0.00459760	     -0.16477682	     -0.19169434	      0.00406731	     -0.30123185	     -0.19169434	      0.00282946	     -0.30123185	     -0.15786592	      0.00229892	     -0.25264127	     -0.14658979	      0.00141461	     -0.19190924	     -0.13531365	      0.01768359	     -1.40149499	     -1.00343189	      0.00000000	      0.00000000	     -0.00000000	      0.00000000	      0.00000000	    -12.05278567	      3.04089016	    -25.06550221	     26.91479911	     45.03966093	      0.00000000	      5.00000014	    -10.13434387	    -11.24166975	     35.95288908	     19.70774292	     59.95208578	      0.00000000	      5.00000014
      5.03333333	      3.64554557	      0.28648522	    177.78793781	      2.44169564	      0.89418329	      0.57102675	     12.00715394	      1.35166371	     -8.39554406	     22.38336830	      0.39066347	     22.00507010	     -3.34626751	      0.00000000	      5.97629319	      0.00175685	      0.79189820	     11.14887411	      0.19458456	     14.71649139	    -17.88949955	      0.00000000	      0.00203736	     -0.12862762	     -0.21345361	      0.00378358	     -0.17107473	     -0.22679446	      0.00334718	     -0.31274519	     -0.22679446	      0.00232850	     -0.31274519	     -0.18677191	      0.00189189	     -0.26229744	     -0.17343106	      0.00116415	     -0.19924418	     -0.16009021	      0.01455266	     -1.45506132	     -1.18716494	      0.00000000	      0.00000000	     -0.00000000	      0.00000000	      0.00000000	    -11.94665636	      2.94388259	    -25.03789934	     26.94097729	     45.06129104	      0.00000000	      5.00000014	    -10.34932643	    -11.04633374	     35.95688352	     19.70509344	     59.94451034	      0.00000000	      5.00000014
      5.06666667	      3.76843272	      0.29854837	    177.60469889	      2.44175292	      0.89422135	      0.57202466	     12.09696990	      1.29175020	     -8.13673443	     22.33178193	      0.38976312	     21.99429489	     -3.17389846	      0.00000000	      6.12870814	      0.04185751	      0.86289801	     11.25407054	      0.19642059	     14.52025021	    -17.75366958	      0.00000000	      0.00183768	     -0.13115906	     -0.23527077	      0.00341275	     -0.17444155	     -0.24997520	      0.00301912	     -0.31890013	     -0.24997520	      0.00210028	     -0.31890013	     -0.20586193	      0.00170647	     -0.26745955	     -0.19115750	      0.00105005	     -0.20316538	     -0.17645308	      0.01312636	     -1.48369749	     -1.30850545	      0.00000000	      0.00000000	     -0.00000000	      0.00000000	      0.00000000	    -11.83235907	      2.80977961	    -24.99219010	     26.93220282	     45.08722943	      0.00000000	      5.00000014	    -10.51750656	    -10.83562994	     35.93183300	     19.72155003	     59.92674302	      0.00000000	      5.00000014
      5.10000000	      3.93066473	      0.20919966	    176.95548223	      2.44210400	      0.89417715	      0.57232036	     12.33423361	      1.20358660	     -7.32842255	     22.38122061	      0.39062599	     22.12696303	     -2.55295992	      0.00000000	      6.49480820	      0.11144843	      0.12727854	     11.76339411	      0.20530996	     14.35499484	    -17.47111825	      0.00000000	      0.00204545	     -0.15007368	     -0.17883344	      0.00379861	     -0.19959799	     -0.19001053	      0.00336047	     -0.36488914	     -0.19001053	      0.00233775	     -0.36488914	     -0.15647926	      0.00189941	     -0.30603025	     -0.14530217	      0.00116877	     -0.23246413	     -0.13412508	      0.01461045	     -1.69766348	     -0.99461795	      0.00000000	      0.00000000	     -0.00000000	      0.00000000	      0.00000000	    -11.67508372	      1.78086837	    -20.88075095	     26.23108234	     48.66779487	      0.00000000	      5.00000014	    -12.07636806	     -9.49982014	     24.91660216	     20.67512165	     55.72020317	      0.00000000	      5.00000014
      5.13333333	      4.00327473	      0.18446201	    176.63182424	      2.44228546	      0.89429360	      0.57280584	     12.45173656	      1.12824173	     -6.85877531	     22.42762176	      0.39143584	     22.18069494	     -2.18066306	      0.00000000	      6.55262706	      0.17120153	     -0.21243293	     11.79990279	      0.20594716	     14.07961793	    -17.23898090	      0.00000000	      0.00193313	     -0.15245045	     -0.13926201	      0.00359001	     -0.20275910	     -0.14796588	      0.00317593	     -0.37066802	     -0.14796588	      0.00220937	     -0.37066802	     -0.12185425	      0.00179510	     -0.31087696	     -0.11315038	      0.00110459	     -0.23614575	     -0.10444650	      0.01380812	     -1.72454997	     -0.77453349	      0.00000000	      0.00000000	     -0.00000000	      0.00000000	      0.00000000	    -11.57625301	      1.67208268	    -20.91646405	     26.12295443	     48.65554915	      0.00000000	      5.00000014	    -12.11063702	     -9.39149085	     24.79649105	     20.74131923	     55.36603840	      0.00000000	      5.00000014
      5.16666667	      4.05170887	      0.29310128	    176.41364900	      2.44236508	      0.89444896	      0.57319889	     12.52211391	      1.19412165	     -6.48693769	     22.43859129	      0.39162730	     22.12002700	     -1.93724811	      0.00000000	      6.56882213	      0.07862826	     -0.67551317	     11.82734951	      0.20642619	     13.93713561	    -16.94026640	      0.00000000	      0.00171716	     -0.13905738	     -0.11415440	      0.00318894	     -0.18494631	     -0.12128905	      0.00282112	     -0.33810411	     -0.12128905	      0.00196254	     -0.33810411	     -0.09988510	      0.00159455	     -0.28356580	     -0.09275045	      0.00098118	     -0.21539988	     -0.08561580	      0.01226550	     -1.57304486	     -0.63489251	      0.00000000	      0.00000000	     -0.00000000	      0.00000000	      0.00000000	    -11.39293664	      1.47774971	    -20.84606926	     25.77022151	     48.66402761	      0.00000000	      5.00000014	    -12.14572003	     -9.29935811	     24.66295294	     20.90202916	     55.05702305	      0.00000000	      5.00000014
      5.20000000	      4.04098317	      0.29757040	    176.27885112	      2.44223384	      0.89461851	      0.57341636	     12.53677187	      1.20925435	     -5.97704041	     22.47582995	      0.39227723	     22.15241151	     -2.06062056	      0.00000000	      6.43712480	      0.12723659	     -0.69748890	     11.70176454	      0.20423432	     13.70213073	    -17.12859501	      0.00000000	     -0.00069072	     -0.14178668	     -0.09256249	     -0.00128273	     -0.18857629	     -0.09834765	     -0.00113478	     -0.34474014	     -0.09834765	     -0.00078942	     -0.34474014	     -0.08099218	     -0.00064140	     -0.28913140	     -0.07520703	     -0.00039468	     -0.21962757	     -0.06942187	     -0.00493372	     -1.60391932	     -0.51480482	      0.00000000	      0.00000000	     -0.00000000	      0.00000000	      0.00000000	    -11.20041631	      1.22826412	    -20.33613761	     25.26835803	     48.86239645	      0.00000000	      5.00000014	    -12.16138672	     -9.36983119	     24.70922533	     21.15818680	     54.93223988	      0.00000000	      5.00000014
      5.23333333	      4.07678884	      0.42781966	    176.42968836	      2.44206143	      0.89478925	      0.57384715	     12.54791007	      1.40434190	     -5.72821386	     22.41853535	      0.39127726	     21.92607267	     -3.02412627	      0.00000000	      6.46778787	      0.04337586	     -0.48564694	     11.76708808	      0.20537443	     13.57763969	    -17.36721460	      0.00000000	      0.00195523	     -0.13209451	     -0.14798228	      0.00363106	     -0.17568570	     -0.15723118	      0.00321225	     -0.32117459	     -0.15723118	      0.00223463	     -0.32117459	     -0.12948450	      0.00181563	     -0.26936712	     -0.12023561	      0.00111722	     -0.20461440	     -0.11098671	      0.01396602	     -1.49427951	     -0.82303307	      0.00000000	      0.00000000	     -0.00000000	      0.00000000	      0.00000000	    -10.84175107	      0.07008459	    -15.71790275	     24.16644968	     50.69283816	      0.00000000	      5.00000014	    -12.15828551	     -9.55655752	     25.60319351	     21.35900428	     55.45292251	      0.00000000	      5.00000014
